<?xml version="1.0" encoding="UTF-8"?>
<svg id="Layer_2" data-name="Layer 2" xmlns="http://www.w3.org/2000/svg" viewBox="0 0 503.86 347.7">
  <defs>
    <style>
      .cls-1 {
        fill: #e6bc59;
      }

      .cls-2 {
        fill: #090e21;
      }

      .cls-3 {
        fill: #f1f1f2;
      }

      .cls-4 {
        fill: #231f20;
      }
    </style>
  </defs>
  <g id="Layer_8" data-name="Layer 8">
    <rect class="cls-2" width="503.86" height="347.7"/>
    <g>
      <path class="cls-3" d="M290.32,188.19c.38-.43,1.43-1.91,1.13-1.02-2.23,3.46-11.04,30.27-13.8,28.57-9.95-.09-29.62-.05-36.03-.22-1.04-.31.21-1.68.82-2.93,2.61-3.64,4.03-9.81,5.52-13.43,14.75,4.5,27.57,7.55,42.36-10.97Z"/>
      <path class="cls-3" d="M251.93,114.31c-6.99,2.92-18.36,9.51-20.46,36.92-1.26-.03-1.62-1.95-2.27-2.85-4.64-9.78-18.13-32.27-16.95-33.6,12.35-1.35,27.29-.6,39.68-.47Z"/>
      <path class="cls-1" d="M231.21,210.81c1.7-2.42,3.23-5.1,2.63-7.94-.67-3.94-5.31-4.71-8.01-5.17-1.42-.34.14-1.7.68-2.73,5.39-7.14,4.32-22.09,3.79-26.54,0-.16,0-.33,0-.46.04-.34.19-.49.67-.07,16.58,18.09,19.71,39.5-2.75,47.35.69-1.36,1.88-2.84,2.99-4.44Z"/>
      <path class="cls-1" d="M223.37,205.79c-1.18-3.58,7.16-3.71,6.73,1.23-.38,1.37-.85,2.49-1.4,3.37-3.09,5.05-8.45,2.76-11.11-2.59l1.44-.4c2.27,6.03,14.04.39,4.34-1.61Z"/>
      <path class="cls-1" d="M228.9,160.49c-.14,2.43-.31,4.87-.54,7.31-.47,5.39-1.18,10.76-2.34,15.97-2.18,7.76-10.42,14.68-7.13,23.22.04.14.09.28.14.41l-1.44.4c-1.97-3.97-2.46-9.63.59-15.23,3.83-10.53-8.41-4.81-6.55-9.18,2.87-7.63-.13-18.73-1.62-24.73,1.32-2.93,8.91,12.42,9.47,13.4,2.05-5.24,1.33-12.76.83-19.03-1.31-11.55-5.37-19.64-6.61-21.98-.17-.35-.28-.69.26-.37,7.63,7.12,14.66,18.84,14.94,29.81Z"/>
      <path class="cls-3" d="M220.2,214.34c2.86,1.83-1.91,1.05-4.32,1.21-25.47-.35-14.38,2.72-2.96-12.76.93-1.1.29,1.03.96,3.27.81,3.35,3.53,6.55,6.32,8.28Z"/>
    </g>
    <path class="cls-4" d="M230.65,126.17l1.08-.12v-2.14l-1.08-.12c-.61-.07-.9-.79-.52-1.28l.68-.87-1.49-1.52-.85.69c-.48.39-1.19.09-1.26-.53l-.12-1.1h-2.11l-.12,1.1c-.07.62-.78.92-1.26.53l-.85-.69c-.89.91-.6.61-1.49,1.52l.68.87c.38.49.09,1.21-.52,1.28l-1.08.12v2.14l1.08.12c.61.07.9.79.52,1.28l-.68.87,1.49,1.52.85-.69c.48-.39,1.19-.09,1.26.53l.12,1.1h2.11l.12-1.1c.07-.62.78-.92,1.26-.53l.85.69c.89-.91.6-.61,1.49-1.52l-.68-.87c-.38-.49-.09-1.21.52-1.28ZM226.04,128.15c-1.72,0-3.11-1.42-3.11-3.17s1.39-3.17,3.11-3.17,3.11,1.42,3.11,3.17-1.39,3.17-3.11,3.17Z"/>
    <path class="cls-4" d="M237.65,121.96l.73.04.24-1.42-.7-.21c-.39-.12-.51-.63-.2-.91l.55-.49-.82-1.17-.64.36c-.36.2-.8-.08-.77-.49l.04-.74-1.39-.24-.2.72c-.11.4-.62.52-.89.21l-.49-.56c-.69.5-.46.33-1.15.83l.35.65c.2.37-.08.81-.49.79l-.73-.04-.24,1.42.7.21c.39.12.51.63.2.91l-.55.49.82,1.17.64-.36c.36-.2.8.08.77.49l-.04.74,1.39.24.2-.72c.11-.4.62-.52.89-.21l.49.56c.69-.5.46-.33,1.15-.83l-.35-.65c-.2-.37.08-.81.49-.79ZM234.39,122.73c-1.14-.2-1.9-1.3-1.7-2.45s1.27-1.93,2.41-1.74,1.9,1.3,1.7,2.45-1.27,1.93-2.41,1.74Z"/>
  </g>
</svg>